<svg width="130" height="148" viewBox="0 0 130 148" fill="none" xmlns="http://www.w3.org/2000/svg">
<path d="M72.6003 23.2153C72.6003 20.154 70.464 16.2552 67.3882 16.2552C64.3262 16.2552 61.67 19.2298 61.2938 22.2189C61.1971 22.9976 61.3135 23.7879 61.6305 24.5057C60.7176 24.6038 59.8604 24.9933 59.1862 25.6165C58.5118 26.2398 58.0562 27.0636 57.8867 27.966L58.2614 27.9516C58.1552 28.973 58.1059 29.9996 58.114 31.0265C58.7334 25.5165 61.8927 27.5936 62.8678 29.7421C63.0958 28.6158 63.6764 27.8216 64.3558 27.8216H66.3911C66.6115 27.8298 66.8236 27.9054 66.9991 28.0382C66.9786 27.9432 66.9566 27.8528 66.9338 27.7631C69.9715 27.7327 72.6003 26.2454 72.6003 23.2153Z" stroke="#004374" stroke-width="1.65" stroke-linejoin="round"/>
<path d="M58.4232 120.165C48.7141 118.781 39.7207 114.269 32.8066 107.313" stroke="#004374" stroke-width="1.65" stroke-linecap="round" stroke-linejoin="round"/>
<path d="M109.699 80.729C108.557 90.3232 104.374 99.3004 97.7609 106.345C91.1474 113.389 82.453 118.131 72.9492 119.876" stroke="#004374" stroke-width="1.65" stroke-linecap="round" stroke-linejoin="round"/>
<path d="M105.034 54.7811C106.395 57.4239 107.488 60.1959 108.298 63.056" stroke="#004374" stroke-width="1.65" stroke-linecap="round" stroke-linejoin="round"/>
<path d="M20.8499 88.0357V73.1769H32.5752C33.1194 73.1769 33.6413 72.9607 34.0262 72.5759C34.411 72.191 34.6272 71.6691 34.6272 71.1249V63.344C34.6272 63.0749 34.5741 62.8085 34.4708 62.56C34.3676 62.3116 34.2163 62.0858 34.0256 61.896C33.835 61.7061 33.6087 61.5557 33.3598 61.4535C33.1109 61.3513 32.8443 61.2993 32.5752 61.3004H5.80342C5.53347 61.3006 5.26618 61.354 5.0169 61.4578C4.76762 61.5614 4.54122 61.7133 4.35076 61.9046C4.16023 62.0959 4.00937 62.323 3.90684 62.5727C3.80424 62.8225 3.75196 63.09 3.75294 63.36V71.1264C3.75294 71.6706 3.96916 72.1925 4.35395 72.5774C4.73882 72.9622 5.26071 73.1784 5.80494 73.1784H17.5287V89.276" stroke="#004374" stroke-width="1.65" stroke-linecap="round" stroke-linejoin="round"/>
<path d="M20.8506 97.104V93.6095" stroke="#004374" stroke-width="1.65" stroke-linecap="round" stroke-linejoin="round"/>
<path d="M17.5293 98.8732V107.342H20.8505V97.8115" stroke="#004374" stroke-width="1.65" stroke-linecap="round" stroke-linejoin="round"/>
<path d="M20.8502 80.308H32.3444C33.6618 80.308 34.9253 80.8316 35.8568 81.7626C36.7884 82.6944 37.3118 83.9583 37.3118 85.2753V102.358C37.3122 103.676 36.7892 104.94 35.8578 105.874C34.9263 106.806 33.6626 107.331 32.3444 107.333H6.03474C5.38274 107.334 4.73697 107.206 4.13444 106.957C3.53183 106.708 2.98425 106.343 2.52286 105.882C2.06154 105.421 1.69552 104.874 1.44579 104.272C1.19605 103.67 1.06746 103.024 1.06738 102.372V85.2723C1.06738 83.9552 1.59072 82.6913 2.52225 81.7596C3.45378 80.8286 4.71728 80.3049 6.03474 80.3049H17.5289" stroke="#004374" stroke-width="1.65" stroke-linecap="round" stroke-linejoin="round"/>
<path d="M19.2759 96.268C20.9935 96.1327 21.0376 94.042 19.377 94.0587C18.1351 94.0716 17.2687 94.1172 16.2868 94.1598C14.6406 94.2358 14.6558 96.4269 16.0124 96.4846C17.1033 96.4687 18.1925 96.3957 19.2759 96.268Z" stroke="#004374" stroke-width="1.65" stroke-linecap="round" stroke-linejoin="round"/>
<path d="M17.996 89.292C17.4017 89.2775 16.9586 89.2775 16.4 89.2775C14.826 89.2631 14.7683 91.458 16.0679 91.5879C16.722 91.6313 17.3783 91.6313 18.0325 91.5879" stroke="#004374" stroke-width="1.65" stroke-linecap="round" stroke-linejoin="round"/>
<path d="M19.666 98.624C21.3258 98.4431 21.3266 96.4291 19.7237 96.4869C18.5252 96.5302 17.6877 96.6039 16.7346 96.6746C15.1462 96.7924 15.204 98.9082 16.518 98.9272C17.5719 98.8816 18.6227 98.7806 19.666 98.624Z" stroke="#004374" stroke-width="1.65" stroke-linecap="round" stroke-linejoin="round"/>
<path d="M18.0375 91.632C17.4128 91.6472 16.8709 91.7042 16.2584 91.7178C14.5863 91.7612 14.5552 93.988 15.9407 94.0738C16.7767 94.1248 17.659 94.0161 19.2619 93.9294C19.5011 93.9363 19.7361 93.8648 19.9314 93.7265C20.1268 93.5882 20.2721 93.3906 20.3452 93.1626C20.4185 92.9346 20.4159 92.6891 20.3377 92.4626C20.2594 92.2369 20.11 92.0416 19.9117 91.9078" stroke="#004374" stroke-width="1.65" stroke-linecap="round" stroke-linejoin="round"/>
<path d="M37.3118 90.6926C36.4887 90.7937 28.4456 90.9966 24.1713 90.9381C23.2038 90.9244 23.2874 89.3809 23.0313 88.9887C22.3473 87.9407 22.136 87.9467 20.0856 88.0767C17.6741 88.2287 17.8961 88.3366 18.0785 92.4665C18.1233 93.4773 19.8835 93.5928 20.2156 90.3871C19.9412 92.8563 21.0676 94.5458 22.7282 95.0801" stroke="#004374" stroke-width="1.65" stroke-linecap="round" stroke-linejoin="round"/>
<path d="M37.3122 99.3277C35.2328 99.27 26.28 99.2122 20.8506 99.1111" stroke="#004374" stroke-width="1.65" stroke-linecap="round" stroke-linejoin="round"/>
<path d="M8.15713 65.2935L8.79249 66.5786L10.2076 66.7808L9.18238 67.7771L9.42786 69.1915L8.15713 68.5273L6.90085 69.1915L7.1319 67.7771L6.12109 66.7808L7.53621 66.5786L8.15713 65.2935Z" stroke="#004374" stroke-width="1.65" stroke-linecap="round" stroke-linejoin="round"/>
<path d="M13.6735 65.2935L14.3089 66.5786L15.724 66.7808L14.6988 67.7771L14.9442 69.1915L13.6735 68.5273L12.4172 69.1915L12.6483 67.7771L11.623 66.7808L13.0382 66.5786L13.6735 65.2935Z" stroke="#004374" stroke-width="1.65" stroke-linecap="round" stroke-linejoin="round"/>
<path d="M19.1892 65.2935L19.8245 66.5786L21.2396 66.7808L20.2144 67.7771L20.4599 69.1915L19.1892 68.5273L17.9184 69.1915L18.1639 67.7771L17.1387 66.7808L18.5538 66.5786L19.1892 65.2935Z" stroke="#004374" stroke-width="1.65" stroke-linecap="round" stroke-linejoin="round"/>
<path d="M24.7058 65.2935L25.3411 66.5786L26.7562 66.7808L25.731 67.7771L25.962 69.1915L24.7058 68.5273L23.435 69.1915L23.6805 67.7771L22.6553 66.7808L24.0704 66.5786L24.7058 65.2935Z" stroke="#004374" stroke-width="1.65" stroke-linecap="round" stroke-linejoin="round"/>
<path d="M30.2214 65.2935L30.8423 66.5786L32.2574 66.7808L31.2322 67.7771L31.4777 69.1915L30.2214 68.5273L28.9507 69.1915L29.1961 67.7771L28.1709 66.7808L29.586 66.5786L30.2214 65.2935Z" stroke="#004374" stroke-width="1.65" stroke-linecap="round" stroke-linejoin="round"/>
<path d="M109.035 47.6911C107.316 47.6311 107.172 45.554 108.832 45.4962C110.074 45.4529 110.941 45.4673 111.937 45.4673C113.583 45.4673 113.669 47.6713 112.312 47.7777C111.489 47.8439 110.623 47.7466 109.035 47.6911Z" stroke="#004374" stroke-width="1.65" stroke-linecap="round" stroke-linejoin="round"/>
<path d="M109.179 49.9293C107.519 49.7477 107.519 47.7344 109.121 47.7922C110.32 47.8355 110.464 47.8226 111.401 47.8933C112.99 48.0118 112.932 50.1261 111.618 50.1459C110.801 50.1327 109.986 50.0603 109.179 49.9293Z" stroke="#004374" stroke-width="1.65" stroke-linecap="round" stroke-linejoin="round"/>
<path d="M103.447 46.6225C105.844 46.9265 107.533 43.7634 106.522 41.5252C106.522 41.5252 106.407 39.6336 106.002 36.7456C105.598 33.8576 104.01 33.6554 104.053 34.3485C104.096 35.0416 103.562 38.8675 102.984 39.9946C102.364 41.2068 100.472 41.2311 99.4611 41.2364C96.5442 41.2508 87.1582 40.6732 87.1582 40.6732" stroke="#004374" stroke-width="1.65" stroke-linecap="round" stroke-linejoin="round"/>
<path d="M87.2441 50.7957C90.1466 50.7091 109.294 50.3769 111.417 50.1603" stroke="#004374" stroke-width="1.65" stroke-linecap="round" stroke-linejoin="round"/>
<path d="M109.222 43.1569C107.561 43.299 107.17 41.3261 108.76 41.0775C109.945 40.8921 110.781 40.8017 111.734 40.6877C113.323 40.4977 113.666 42.577 112.37 42.8537C111.326 43.0086 110.276 43.1099 109.222 43.1569Z" stroke="#004374" stroke-width="1.65" stroke-linecap="round" stroke-linejoin="round"/>
<path d="M108.948 45.4673C107.276 45.4825 107.042 43.4754 108.659 43.3591C109.858 43.2724 111.623 43.217 112.573 43.1858C114.161 43.1326 114.349 45.2439 113.035 45.3951C112.241 45.4863 110.479 45.4529 108.948 45.4673Z" stroke="#004374" stroke-width="1.65" stroke-linecap="round" stroke-linejoin="round"/>
<path d="M106.276 38.9404C106.464 41.1497 106.565 40.9924 111.735 40.6884" stroke="#004374" stroke-width="1.65" stroke-linecap="round" stroke-linejoin="round"/>
<path d="M118.435 31.5616C119.752 31.5616 121.016 32.0849 121.948 33.0165C122.879 33.9481 123.403 35.2115 123.403 36.5289V49.7993C123.403 51.1174 122.88 52.3819 121.949 53.3146C121.017 54.2474 119.753 54.7721 118.435 54.7735H92.1256C91.4735 54.7745 90.8275 54.647 90.224 54.3983C89.6214 54.1495 89.0734 53.7845 88.6113 53.324C88.1493 52.8634 87.7829 52.3163 87.5321 51.714C87.2813 51.1117 87.1521 50.4661 87.1514 49.8137V36.532C87.1506 35.8801 87.2783 35.2344 87.5268 34.6318C87.7761 34.0292 88.1409 33.4816 88.6015 33.0203C89.062 32.5589 89.6092 32.1928 90.2111 31.9431C90.8138 31.6934 91.4591 31.5647 92.1111 31.5646L118.435 31.5616Z" stroke="#004374" stroke-width="1.65" stroke-linecap="round" stroke-linejoin="round"/>
<path d="M61.8887 36.3845C62.2033 36.2413 62.503 36.0671 62.7832 35.8647L61.9898 37.3953" stroke="#004374" stroke-width="1.65" stroke-linecap="round" stroke-linejoin="round"/>
<path d="M64.559 33.742C64.625 34.9773 64.9136 36.1905 65.411 37.3231C65.8867 38.4377 66.687 39.3836 67.7069 40.0378C68.9039 40.7621 73.1516 40.7013 74.8403 43.7922C76.3717 46.5928 78.0885 55.7197 78.8683 61.0625C79.0264 62.1479 78.8052 63.2545 78.242 64.1958C77.6789 65.1372 76.8087 65.8558 75.7781 66.2305C70.3897 68.1276 64.8025 69.4061 59.125 70.0411" stroke="#004374" stroke-width="1.65" stroke-linecap="round" stroke-linejoin="round"/>
<path d="M62.8721 29.7421C61.8765 27.5473 58.762 25.1639 58.2521 31.1284C58.0943 32.3957 58.1529 33.6807 58.4254 34.9284C59.06 37.2677 60.8224 36.8922 61.891 36.3868C61.9593 36.7194 61.9931 37.0581 61.992 37.3976C62.0421 38.0376 61.8757 38.676 61.5196 39.2101C61.1634 39.7443 60.6383 40.1434 60.0282 40.3434C59.0736 40.6725 54.9362 41.0479 52.9093 46.0183C52.2428 47.6493 51.8407 49.6139 51.0898 51.159" stroke="#004374" stroke-width="1.65" stroke-linecap="round" stroke-linejoin="round"/>
<path d="M67.4186 51.7776L68.6026 57.7413L57.2969 59.5896" stroke="#004374" stroke-width="1.65" stroke-linecap="round" stroke-linejoin="round"/>
<path d="M58.6972 61.1499C58.055 61.2846 57.3865 61.2084 56.7911 60.9325C55.7803 60.2827 55.0431 58.6351 54.2497 56.4561C53.1097 53.3493 52.9501 54.6656 52.8201 55.8481C52.7023 56.4364 53.0755 59.8868 51.6505 59.0827C49.821 57.4069 47.8335 55.9124 45.7156 54.62C43.01 53.2147 42.8428 53.9831 44.907 55.8763C45.5413 56.4546 46.1439 57.0667 46.712 57.7101C47.4035 58.4869 48.045 59.3068 48.6325 60.1649C49.5065 61.5694 51.1162 64.2218 53.08 65.5655C55.1604 66.9914 57.4303 68.1188 59.8235 68.9148" stroke="#004374" stroke-width="1.65" stroke-linecap="round" stroke-linejoin="round"/>
<path d="M50.8853 63.474C50.0189 62.0011 47.403 60.472 46.152 59.332C45.2985 58.5537 43.6797 57.432 42.7442 56.6173C42.5124 56.4159 42.5998 55.8664 44.3759 56.6461C44.7703 56.8209 46.1277 57.4259 46.738 57.7405" stroke="#004374" stroke-width="1.65" stroke-linecap="round" stroke-linejoin="round"/>
<path d="M46.0491 59.2393C45.7368 59.1542 45.4685 59.0873 45.3264 59.0554C43.4492 58.5788 43.4484 59.1428 43.7091 59.3008C44.7609 59.9392 46.5568 60.7973 47.5213 61.4235C48.9371 62.2406 50.2802 63.1778 51.5356 64.2249" stroke="#004374" stroke-width="1.65" stroke-linecap="round" stroke-linejoin="round"/>
<path d="M56.5918 60.7881C56.8608 59.3122 57.5304 59.2613 58.2091 60.2561C59.5467 62.2101 60.4891 67.505 59.6531 69.5114C59.1773 70.6568 58.2668 69.8694 57.557 68.0674" stroke="#004374" stroke-width="1.65" stroke-linecap="round" stroke-linejoin="round"/>
<path d="M56.2857 67.4594L57.1955 70.3178L43.9395 66.6941L36.6328 45.5395L50.4375 49.1062L52.7912 56.4995" stroke="#004374" stroke-width="1.65" stroke-linecap="round" stroke-linejoin="round"/>
<path d="M42.6974 47.1135L41.9609 44.4421L44.0547 44.9475L44.5313 47.59" stroke="#004374" stroke-width="1.65" stroke-linecap="round" stroke-linejoin="round"/>
<path d="M63.4911 33.28C62.8813 33.8627 62.1657 34.3234 61.3828 34.6373" stroke="#004374" stroke-width="1.65" stroke-linecap="round" stroke-linejoin="round"/>
<path d="M55.5636 49.6838C55.5636 49.6838 55.2771 53.6897 56.8921 56.5998L58.4516 59.4011" stroke="#004374" stroke-width="1.65" stroke-linecap="round" stroke-linejoin="round"/>
<path d="M60.002 69.9454L48.6324 92.3388C48.0334 93.5244 47.6939 94.824 47.6366 96.151C47.5793 97.4787 47.8056 98.8026 48.3003 100.035C51.8734 108.702 56.2383 117.022 61.3396 124.887C67.5768 124.021 72.8474 121.479 75.9665 116.064C70.5226 108.483 65.9595 101.292 62.7836 94.751L70.2315 82.5204C73.2776 87.208 76.7538 91.6024 80.6139 95.6463C81.9537 97.066 83.7785 97.9301 85.7264 98.0662C87.6735 98.203 89.6016 97.6018 91.1262 96.3828C98.5309 90.473 105.624 84.3109 112.671 78.1428C112.098 75.5504 110.882 73.1434 109.137 71.1429C107.392 69.1424 105.172 67.6124 102.68 66.6934L87.4721 81.5415C83.5201 69.7098 78.9989 66.4623 77.0061 65.5815" stroke="#004374" stroke-width="1.65" stroke-linecap="round" stroke-linejoin="round"/>
<path d="M67.9238 86.3028L67.7217 78.0143C68.4756 79.5616 69.3139 81.0657 70.2342 82.5196" stroke="#004374" stroke-width="1.65" stroke-linecap="round" stroke-linejoin="round"/>
<path d="M105.28 65.2638C109.612 64.8899 122.508 63.8571 126.788 65.2479" stroke="#004374" stroke-width="1.65" stroke-linecap="round" stroke-linejoin="round"/>
<path d="M103.648 67.1129L107.042 63.2574C113.944 62.0877 125.106 61.8423 128.93 63.7339C124.741 66.7959 119.354 70.1118 114.504 71.834C113.199 72.2085 111.969 72.8044 110.865 73.5957" stroke="#004374" stroke-width="1.65" stroke-linecap="round" stroke-linejoin="round"/>
<path d="M72.1256 120.598L75.2013 125.175C74.566 132.15 71.9379 143.009 69.1213 146.2C67.0192 141.076 65.6299 135.688 64.9915 130.186C64.8494 128.453 64.7323 126.85 63.7937 125.392L63.2617 124.556" stroke="#004374" stroke-width="1.65" stroke-linecap="round" stroke-linejoin="round"/>
<path d="M44.373 46.6803C44.373 46.6803 46.6834 46.0161 48.5751 48.6297" stroke="#004374" stroke-width="1.65" stroke-linecap="round" stroke-linejoin="round"/>
<path d="M57.7737 41.0198C57.6101 41.1242 57.4843 41.2783 57.4148 41.4594C57.3452 41.6406 57.3356 41.8394 57.3873 42.0264C57.4389 42.2135 57.5493 42.379 57.702 42.4988C57.8547 42.6186 58.0418 42.6862 58.2358 42.6918C58.3968 42.691 58.5547 42.6462 58.6921 42.5622C58.8296 42.4782 58.9414 42.3582 59.0156 42.2153C58.494 41.9463 58.0624 41.5307 57.7737 41.0198Z" stroke="#004374" stroke-width="1.65" stroke-linecap="round" stroke-linejoin="round"/>
<path d="M58.9721 42.5793C58.9714 42.786 59.0437 42.9864 59.1761 43.1451C59.3086 43.3039 59.4928 43.4108 59.6964 43.4471C59.8999 43.4835 60.1097 43.4468 60.2889 43.3437C60.4681 43.2406 60.6052 43.0776 60.676 42.8833C60.1194 42.6944 59.5745 42.4726 59.0443 42.2191C58.9929 42.332 58.9682 42.4553 58.9721 42.5793Z" stroke="#004374" stroke-width="1.65" stroke-linecap="round" stroke-linejoin="round"/>
<path d="M60.6328 43.144C60.6322 43.3616 60.7118 43.5719 60.8564 43.7346C61.0009 43.8973 61.2003 44.001 61.4165 44.026C61.6327 44.051 61.8506 43.9956 62.0284 43.8702C62.2063 43.7447 62.3317 43.5582 62.3808 43.3461C61.8037 43.2344 61.2345 43.0849 60.6769 42.8985C60.647 42.9769 60.6322 43.0602 60.6328 43.144Z" stroke="#004374" stroke-width="1.65" stroke-linecap="round" stroke-linejoin="round"/>
<path d="M62.3218 43.4746C62.3136 43.7056 62.3972 43.9304 62.5542 44.1C62.7113 44.2696 62.929 44.3701 63.1599 44.3796C63.3909 44.3892 63.6162 44.307 63.7867 44.1508C63.9571 43.9948 64.059 43.7777 64.0698 43.5468C63.4878 43.5182 62.9089 43.4458 62.3378 43.3302C62.3401 43.372 62.3218 43.4313 62.3218 43.4746Z" stroke="#004374" stroke-width="1.65" stroke-linecap="round" stroke-linejoin="round"/>
<path d="M64.084 43.5468C64.0839 43.7741 64.1732 43.9923 64.3326 44.1544C64.492 44.3164 64.7086 44.4094 64.9359 44.4132C65.0544 44.4144 65.1715 44.3908 65.2809 44.3438C65.3896 44.2968 65.4869 44.2275 65.5674 44.1404C65.6472 44.0533 65.7088 43.9503 65.7468 43.8382C65.7848 43.7259 65.7985 43.607 65.7878 43.489C65.2224 43.5515 64.6525 43.5708 64.084 43.5468Z" stroke="#004374" stroke-width="1.65" stroke-linecap="round" stroke-linejoin="round"/>
<path d="M66.6965 44.208C66.8333 44.2075 66.9678 44.1755 67.0902 44.1144C67.2125 44.0533 67.3189 43.9648 67.4018 43.8558C67.4838 43.7468 67.5401 43.6202 67.5659 43.4859C67.591 43.3517 67.5849 43.2133 67.5484 43.0817C66.9906 43.2709 66.4145 43.4015 65.8301 43.4715C65.8643 43.6767 65.9707 43.863 66.1288 43.9978C66.2876 44.1325 66.4882 44.2069 66.6965 44.208Z" stroke="#004374" stroke-width="1.65" stroke-linecap="round" stroke-linejoin="round"/>
<path d="M68.3573 43.6479C68.5115 43.6481 68.6628 43.6079 68.7958 43.5312C68.9295 43.4546 69.0405 43.3441 69.118 43.2111C69.1955 43.0781 69.2366 42.927 69.2373 42.7731C69.2381 42.6192 69.1986 42.4677 69.1226 42.3339C68.621 42.6436 68.089 42.9001 67.5342 43.0992C67.6033 43.2607 67.7181 43.3986 67.864 43.4961C68.0099 43.5935 68.1817 43.6462 68.3573 43.6479Z" stroke="#004374" stroke-width="1.65" stroke-linecap="round" stroke-linejoin="round"/>
<path d="M70.1906 40.8754C70.3943 40.9378 70.5683 41.0705 70.6823 41.25C70.7963 41.4293 70.8427 41.6435 70.8131 41.854C70.7842 42.0646 70.6801 42.2577 70.5212 42.3987C70.3616 42.5397 70.158 42.6193 69.9452 42.6234C69.7954 42.6358 69.6449 42.6164 69.5028 42.5667C69.3607 42.517 69.2315 42.4378 69.1221 42.3346C69.6039 41.9537 69.9733 41.4495 70.1906 40.8754Z" stroke="#004374" stroke-width="1.65" stroke-linecap="round" stroke-linejoin="round"/>
<path d="M96.9766 18.4501V26.0888" stroke="#004374" stroke-width="1.65" stroke-linecap="round" stroke-linejoin="round"/>
<path d="M100.804 22.2622H93.165" stroke="#004374" stroke-width="1.65" stroke-linecap="round" stroke-linejoin="round"/>
<path d="M65.3972 33.0634C66.43 34.6472 67.9964 33.3233 67.9964 30.7834C67.9964 28.2564 66.4201 26.921 65.3972 28.5034C65.0217 29.2046 64.8252 29.9879 64.8252 30.7834C64.8252 31.5788 65.0217 32.362 65.3972 33.0634Z" stroke="#004374" stroke-width="1.65" stroke-linecap="round" stroke-linejoin="round"/>
<path d="M66.4079 27.8072H64.3726C63.4887 27.8072 62.7819 29.1433 62.7842 30.7818C62.7865 32.4204 63.4917 33.7458 64.3726 33.7458H66.2794" stroke="#004374" stroke-width="1.65" stroke-linecap="round" stroke-linejoin="round"/>
<path d="M57.8741 27.9804C57.181 28.0093 56.5312 29.3811 56.617 31.0128C56.7044 32.5724 57.4264 33.8248 58.2488 33.8864C58.0192 31.9191 58.0287 29.9311 58.2769 27.966L57.8741 27.9804Z" stroke="#004374" stroke-width="1.65" stroke-linecap="round" stroke-linejoin="round"/>
<path d="M58.1201 27.8794C58.263 27.0622 58.7005 26.3259 59.3499 25.8096C59.9991 25.2933 60.8152 25.0331 61.6435 25.078C62.4781 25.0522 63.2973 25.3071 63.97 25.8019C64.6426 26.2966 65.1296 27.0027 65.3538 27.8072" stroke="#004374" stroke-width="1.65" stroke-linecap="round" stroke-linejoin="round"/>
<path d="M29.081 11.9521C28.9284 11.7993 28.7472 11.6781 28.5477 11.5955C28.3483 11.5128 28.1345 11.4702 27.9186 11.4702C27.7027 11.4702 27.4889 11.5128 27.2894 11.5955C27.09 11.6781 26.9087 11.7993 26.7562 11.9521L26.3374 12.3853L25.9187 11.9521C25.6103 11.6438 25.1922 11.4706 24.7563 11.4706C24.3202 11.4706 23.9021 11.6438 23.5938 11.9521C23.2855 12.2603 23.1123 12.6785 23.1123 13.1145C23.1123 13.5505 23.2855 13.9686 23.5938 14.2769L26.3374 17.0205L29.081 14.2769C29.2337 14.1243 29.3549 13.9431 29.4376 13.7436C29.5202 13.5442 29.5628 13.3304 29.5628 13.1145C29.5628 12.8986 29.5202 12.6848 29.4376 12.4853C29.3549 12.2858 29.2337 12.1047 29.081 11.9521Z" stroke="#004374" stroke-width="1.65" stroke-linecap="round" stroke-linejoin="round"/>
<path d="M34.2963 24.2785L40.0427 26.5509L37.8189 20.8509C39.2007 18.8808 39.9327 16.5282 39.9127 14.1219C39.8337 7.2302 33.6731 1.72856 26.1499 1.8C18.6122 1.876 12.5687 7.50456 12.6363 14.378C12.7123 22.51 21.0981 28.1971 29.4878 26.3199C31.2027 25.9413 32.8328 25.2493 34.2963 24.2785Z" stroke="#004374" stroke-width="1.65" stroke-linecap="round" stroke-linejoin="round"/>
<path d="M117.381 119.082L112.067 118.316L109.699 113.508L107.331 118.316L102.017 119.082L105.858 122.836L104.948 128.121L109.699 125.623L114.449 128.121L113.54 122.836L117.381 119.082Z" stroke="#004374" stroke-width="1.65" stroke-linecap="round" stroke-linejoin="round"/>
<path d="M67.9961 30.3342C74.7381 30.7946 81.2893 32.7741 87.158 36.1246" stroke="#004374" stroke-width="1.65" stroke-linecap="round" stroke-linejoin="round"/>
<path d="M21.875 61.308C24.4129 53.6019 28.9759 46.7199 35.0863 41.3824C41.1967 36.045 48.6297 32.4485 56.607 30.9695" stroke="#004374" stroke-width="1.65" stroke-linecap="round" stroke-linejoin="round"/>
<path d="M107.562 69.5958L99.3311 77.2923" stroke="#004374" stroke-width="1.65" stroke-linecap="round" stroke-linejoin="round"/>
<path d="M71.2446 121.161L65.1221 111.688" stroke="#004374" stroke-width="1.65" stroke-linecap="round" stroke-linejoin="round"/>
<path d="M71.9521 69.9279C73.064 70.7363 74.3287 71.3094 75.6693 71.6124C77.0099 71.9152 78.3985 71.9415 79.7497 71.6896" stroke="#004374" stroke-width="1.65" stroke-linecap="round" stroke-linejoin="round"/>
<path d="M24.7061 114.273V115.954" stroke="#004374" stroke-width="1.65" stroke-linecap="round" stroke-linejoin="round"/>
<path d="M27.976 117.544H26.2949" stroke="#004374" stroke-width="1.65" stroke-linecap="round" stroke-linejoin="round"/>
<path d="M24.7061 120.814V119.133" stroke="#004374" stroke-width="1.65" stroke-linecap="round" stroke-linejoin="round"/>
<path d="M21.4346 117.544H23.1165" stroke="#004374" stroke-width="1.65" stroke-linecap="round" stroke-linejoin="round"/>
<path d="M26.2945 117.544C26.0858 117.544 25.879 117.503 25.686 117.423C25.493 117.344 25.3177 117.227 25.1701 117.079C25.0225 116.931 24.9055 116.756 24.8258 116.563C24.746 116.37 24.7051 116.163 24.7054 115.954C24.7058 116.163 24.6649 116.37 24.5852 116.563C24.5056 116.756 24.3885 116.932 24.2409 117.079C24.0933 117.227 23.9179 117.344 23.7249 117.424C23.5319 117.504 23.3251 117.544 23.1162 117.544C23.325 117.544 23.5318 117.584 23.7247 117.664C23.9176 117.744 24.093 117.861 24.2406 118.009C24.3882 118.157 24.5053 118.332 24.5851 118.525C24.6648 118.718 24.7057 118.924 24.7054 119.133C24.7052 118.924 24.7462 118.718 24.8259 118.525C24.9057 118.332 25.0227 118.157 25.1704 118.009C25.318 117.862 25.4933 117.745 25.6862 117.665C25.879 117.585 26.0858 117.544 26.2945 117.544Z" stroke="#004374" stroke-width="1.65" stroke-linecap="round" stroke-linejoin="round"/>
<path d="M73.7143 122.952C72.9665 127.239 70.6561 139.967 68.2119 143.747" stroke="#004374" stroke-width="1.65" stroke-linecap="round" stroke-linejoin="round"/>
</svg>
